<?xml version="1.0" standalone="no"?>
<!DOCTYPE svg PUBLIC "-//W3C//DTD SVG 20010904//EN"
 "http://www.w3.org/TR/2001/REC-SVG-20010904/DTD/svg10.dtd">
<svg version="1.0" xmlns="http://www.w3.org/2000/svg"
 width="1000.000000pt" height="1000.000000pt" viewBox="0 0 1000.000000 1000.000000"
 preserveAspectRatio="xMidYMid meet">
<metadata>
Created by potrace 1.11, written by Peter Selinger 2001-2013
</metadata>
<g transform="translate(0.000000,1000.000000) scale(0.100000,-0.100000)"
fill="#000000" stroke="none">
<path d="M4784 7500 c-57 -8 -94 -36 -175 -137 -5 -7 -7 -13 -4 -13 3 0 -1
-10 -9 -22 -18 -27 -48 -113 -52 -148 -1 -14 -6 -45 -10 -70 -4 -25 -8 -81 -8
-124 l-1 -80 48 -28 c26 -15 47 -25 47 -21 0 3 6 1 13 -5 6 -6 53 -31 102 -57
50 -26 142 -75 205 -108 63 -33 132 -69 154 -80 l38 -18 26 23 c32 28 43 41
78 91 32 44 33 42 -75 98 -36 19 -68 37 -69 42 -2 4 -8 5 -13 1 -5 -3 -9 0 -9
6 0 6 -4 9 -9 6 -5 -4 -11 -2 -13 3 -1 4 -27 20 -55 35 -32 16 -53 33 -54 44
0 9 -3 26 -5 37 -3 11 -7 36 -10 55 -2 19 -7 52 -10 73 -7 41 -4 43 34 23 15
-8 72 -36 127 -62 55 -26 131 -62 169 -80 78 -38 86 -40 86 -19 0 9 -6 12 -15
9 -8 -4 -15 -1 -15 5 0 6 -9 11 -20 11 -10 0 -24 8 -29 18 -6 9 -11 14 -11 10
0 -7 -102 39 -160 72 -24 13 -29 16 -47 19 -7 1 -15 111 -9 111 9 0 102 -55
108 -64 5 -7 8 -7 8 -1 0 7 3 7 8 0 4 -5 23 -18 42 -29 19 -10 58 -32 87 -48
l52 -30 -2 39 c-1 21 -6 44 -10 51 -5 6 -6 12 -3 12 6 0 -19 74 -37 110 -56
113 -218 223 -348 236 -84 8 -104 9 -145 4z m205 -67 c14 -7 32 -13 39 -13 15
0 77 -39 115 -74 30 -26 97 -115 97 -129 0 -4 -33 14 -72 41 -85 57 -173 93
-241 97 -27 1 -50 5 -53 8 -5 5 -81 -13 -116 -28 -19 -8 -25 11 -20 67 3 24
10 38 20 41 41 10 207 3 231 -10z"/>
<path d="M4828 6615 c-2 -2 -15 -5 -28 -7 -14 -2 -38 -13 -55 -23 -30 -20 -68
-61 -63 -68 2 -2 -3 -11 -9 -19 -10 -12 -10 -18 1 -33 12 -16 11 -22 -9 -43
-19 -21 -21 -29 -14 -70 5 -26 12 -54 16 -62 3 -8 7 -18 7 -21 1 -9 60 -133
66 -139 4 -4 33 -54 43 -74 1 -2 -7 -13 -17 -25 -11 -12 -15 -21 -10 -22 5 0
25 -2 46 -3 49 -3 64 -18 62 -60 -2 -35 9 -48 19 -23 3 7 6 5 6 -5 1 -10 -6
-18 -15 -18 -8 0 -13 -4 -10 -8 2 -4 -5 -9 -17 -10 -12 -1 -38 -3 -57 -5 -19
-2 -39 -1 -44 1 -17 9 -166 13 -166 4 0 -10 6 -11 90 -13 36 0 79 -5 95 -9 88
-25 380 -44 423 -28 30 11 121 17 127 8 2 -3 27 -6 54 -6 28 1 51 -1 51 -4 0
-3 12 -5 28 -6 63 -2 132 -9 132 -14 0 -3 15 -6 33 -7 33 -2 102 -11 102 -13
0 -2 32 -7 100 -15 33 -4 63 -10 68 -14 7 -7 -60 -6 -183 4 -36 3 -101 7 -145
10 -44 3 -120 8 -170 12 -49 3 -109 6 -132 6 -24 1 -43 4 -43 7 0 3 -28 5 -63
6 -62 1 -262 12 -262 14 0 2 -185 12 -247 14 -32 0 -58 4 -58 8 0 3 -8 4 -19
1 -10 -3 -21 0 -25 5 -14 23 -24 296 -14 378 3 20 0 31 -9 31 -7 0 -13 -4 -13
-9 0 -5 -24 -33 -54 -63 -30 -30 -52 -55 -50 -55 3 0 -8 -12 -24 -27 -31 -29
-58 -95 -47 -113 3 -5 2 -10 -2 -10 -5 0 -8 -18 -6 -41 1 -32 -1 -40 -12 -35
-8 3 -17 1 -20 -4 -8 -13 -65 -13 -65 0 0 7 -8 6 -22 -1 -28 -15 -32 -20 -90
-91 -26 -31 -75 -86 -110 -121 -56 -58 -127 -134 -283 -305 -27 -31 -65 -71
-82 -90 -18 -18 -33 -35 -33 -37 0 -3 -17 -22 -37 -43 -69 -72 -129 -137 -136
-149 -5 -8 22 -10 100 -8 139 3 205 18 271 57 17 11 32 16 32 11 0 -4 5 0 11
10 9 16 90 17 1472 17 1455 0 1462 0 1496 -21 38 -23 161 -71 161 -62 0 3 6 1
13 -5 7 -6 28 -14 47 -18 19 -3 46 -8 60 -11 52 -10 209 -11 246 -2 71 18 109
33 119 49 3 5 11 8 16 5 5 -4 9 -2 9 3 0 5 12 18 28 28 24 16 53 18 257 18
219 1 231 2 251 22 17 17 31 20 80 18 77 -3 334 -6 356 -5 11 1 16 8 13 21 -2
11 0 21 6 21 5 1 14 3 19 4 6 1 37 3 70 4 65 1 67 6 28 63 l-18 26 52 -25 c89
-43 101 -46 93 -26 -4 10 -8 23 -9 28 -5 25 -52 108 -86 149 -41 50 -130 136
-141 136 -6 0 -7 5 -4 10 3 6 1 10 -5 10 -6 0 -20 9 -32 20 -12 11 -34 26 -50
32 -15 7 -28 16 -28 20 0 5 -7 8 -15 8 -8 0 -15 3 -15 8 0 4 -30 23 -67 42
-38 19 -71 39 -75 45 -4 5 -8 6 -8 1 0 -4 -10 -2 -22 6 -24 15 -132 61 -228
97 -30 11 -68 26 -85 32 -16 7 -34 13 -40 13 -21 3 -131 37 -147 46 -10 6 -30
10 -46 10 -15 0 -33 5 -40 12 -7 7 -12 9 -12 6 0 -4 -21 -1 -47 7 -27 7 -73
18 -103 24 -30 6 -66 14 -80 17 -61 13 -126 22 -131 18 -4 -2 -9 2 -12 10 -4
10 6 19 30 29 l36 14 -39 29 c-22 16 -45 35 -52 42 -7 6 -21 12 -31 12 -10 0
-26 9 -36 20 -10 11 -22 20 -27 20 -5 0 -18 8 -29 18 -10 11 -32 25 -47 33
-15 8 -29 17 -32 20 -3 3 -34 25 -70 49 -36 24 -68 48 -71 53 -3 5 -9 8 -13 8
-18 -3 -27 0 -23 7 7 10 -19 32 -27 24 -4 -3 -5 0 -2 8 8 21 -53 61 -80 54
-12 -3 -30 -23 -40 -45 -11 -21 -21 -39 -24 -39 -3 0 -6 -10 -7 -22 -3 -28
-43 -108 -55 -108 -5 0 -6 -5 -2 -11 13 -22 6 -68 -14 -89 -11 -12 -22 -34
-25 -49 -3 -15 -15 -38 -26 -52 l-20 -24 -25 27 c-25 26 -35 58 -18 58 9 0 55
85 58 107 1 7 -2 16 -8 19 -5 3 -14 18 -19 32 l-10 27 -16 -33 c-8 -17 -19
-32 -24 -32 -5 0 -8 -3 -7 -7 2 -5 -9 -24 -25 -44 -15 -20 -27 -39 -27 -43 0
-3 -13 -24 -29 -46 -21 -29 -31 -36 -40 -27 -16 16 -15 21 27 83 20 31 42 66
49 78 7 11 17 28 23 36 15 22 53 80 67 103 6 11 15 22 20 26 4 3 15 22 24 41
19 42 8 60 -39 60 -34 0 -69 -29 -106 -88 -18 -30 -33 -42 -49 -41 -29 1 -134
-29 -161 -46 -11 -7 -75 -32 -141 -55 -66 -22 -139 -49 -162 -60 -24 -11 -45
-20 -47 -20 -3 0 -17 -5 -33 -12 -15 -6 -32 -12 -38 -13 -5 -2 -29 -8 -53 -14
-73 -20 -103 -24 -226 -26 -78 -2 -124 1 -134 9 -44 35 -122 114 -122 124 0 7
-4 12 -8 12 -8 0 -56 90 -87 163 -14 33 -105 139 -105 123 0 -4 -11 1 -24 9
-21 14 -109 29 -118 20z m125 -160 c42 -17 83 -64 110 -124 26 -59 99 -131
167 -164 61 -30 146 -54 179 -52 11 1 21 -1 21 -4 0 -8 186 1 250 13 14 2 42
7 63 11 22 4 56 13 78 20 21 8 39 12 39 10 0 -2 25 5 55 15 30 10 55 15 55 11
0 -8 -21 -21 -40 -26 -3 0 -21 -8 -40 -16 -84 -38 -180 -72 -180 -63 0 2 -11
-1 -24 -5 -69 -27 -291 -30 -386 -5 -14 3 -36 8 -49 10 -14 3 -29 8 -35 12 -6
3 -15 7 -21 8 -24 4 -106 48 -130 70 -14 13 -28 24 -31 24 -5 0 -49 46 -69 72
-19 24 -51 83 -68 125 -15 38 -15 44 -1 58 19 18 14 18 57 0z m1832 -275 c24
-16 48 -30 54 -30 6 0 11 -4 11 -9 0 -5 9 -13 21 -16 14 -5 18 -12 14 -23 -4
-10 -8 -21 -9 -27 -1 -5 -5 -16 -9 -22 -5 -7 -4 -13 1 -13 13 0 10 -33 -5 -43
-6 -4 -19 -30 -28 -58 -9 -27 -26 -59 -37 -69 -20 -19 -21 -18 -82 22 -33 23
-63 44 -66 48 -3 4 -12 9 -20 13 -23 10 -51 30 -72 50 -19 18 -19 19 1 50 28
46 152 154 179 157 2 0 23 -13 47 -30z m-561 -165 c-4 -8 -14 -15 -23 -15 -14
1 -13 3 3 15 25 19 27 19 20 0z m203 -12 c23 -15 40 -30 37 -35 -3 -5 -10 -6
-15 -3 -11 7 -40 14 -91 22 -35 5 -48 20 -31 36 14 15 61 6 100 -20z m-337
-32 c0 -12 -9 -20 -27 -24 -33 -6 -44 0 -17 10 10 3 23 12 27 20 11 18 17 16
17 -6z m1090 -17 c249 -73 263 -80 240 -118 -8 -11 -20 -33 -27 -47 -13 -27
-64 -46 -85 -33 -14 9 -140 13 -153 5 -5 -3 -19 -6 -30 -6 -11 -1 -29 -5 -40
-9 -102 -39 -92 -39 -142 -4 -40 29 -73 51 -81 54 -1 1 2 12 7 25 12 32 56 78
117 123 44 33 54 36 94 31 25 -3 70 -12 100 -21z m-915 2 c42 -12 154 -65 173
-83 7 -7 20 -13 28 -13 8 0 14 -4 14 -10 0 -10 -76 14 -97 31 -7 6 -13 9 -13
5 0 -4 -13 0 -30 9 -16 8 -32 15 -35 16 -2 0 -33 13 -67 29 -60 28 -61 29 -23
24 22 -3 45 -7 50 -8z m-105 -5 c0 -5 -7 -11 -14 -14 -10 -4 -13 -1 -9 9 6 15
23 19 23 5z m-1110 -41 c14 -11 36 -29 50 -40 l25 -20 -47 14 c-27 8 -48 12
-48 9 0 -3 -7 0 -15 7 -18 15 -20 34 -3 24 8 -5 9 -2 5 9 -8 22 2 21 33 -3z
m-745 -47 c-12 -8 -24 -9 -35 -3 -10 5 -21 6 -25 2 -5 -4 -5 -1 -1 6 4 7 11
10 16 7 4 -3 13 2 20 10 10 12 16 13 27 3 13 -10 13 -14 -2 -25z m685 17 c0
-5 -10 -10 -22 -10 -19 0 -20 2 -8 10 19 13 30 13 30 0z m1667 -34 c18 -11 35
-27 38 -34 3 -8 -5 -6 -20 5 -13 10 -25 21 -25 25 0 3 -13 9 -30 13 -16 4 -33
11 -36 17 -10 15 35 0 73 -26z m-152 -6 c3 -5 1 -10 -4 -10 -6 0 -11 5 -11 10
0 6 2 10 4 10 3 0 8 -4 11 -10z m70 -31 c25 -12 45 -26 45 -31 0 -8 -78 30
-99 48 -11 10 14 2 54 -17z m-711 -7 c3 -5 -1 -9 -9 -9 -8 0 -12 4 -9 9 3 4 7
8 9 8 2 0 6 -4 9 -8z m1870 -96 c39 -19 101 -48 139 -66 37 -17 67 -34 67 -38
0 -4 -9 -20 -19 -36 -18 -28 -19 -28 -38 -10 -22 21 -28 23 -95 31 l-48 6 0
-32 c0 -17 -5 -32 -12 -32 -54 -5 -123 5 -133 21 -2 4 6 28 20 54 13 25 22 46
19 46 -2 0 0 9 6 19 5 11 11 31 12 45 1 15 4 26 6 26 3 0 37 -15 76 -34z
m-3627 -30 c16 -3 47 -8 68 -11 20 -2 56 -7 79 -11 22 -4 47 -7 54 -7 6 0 12
-3 12 -6 0 -3 12 -6 28 -7 33 -1 110 -11 143 -18 13 -3 40 -8 59 -11 19 -2 46
-7 59 -10 14 -2 47 -7 75 -10 28 -3 58 -8 66 -10 25 -7 161 -28 188 -28 6 0
12 -4 12 -9 0 -5 4 -7 9 -3 18 10 93 -7 99 -24 3 -9 9 -18 13 -21 12 -8 139
-190 139 -199 0 -8 -1065 -9 -1074 -1 -2 3 -6 19 -9 35 -3 17 -13 63 -22 104
-9 40 -19 80 -20 90 -2 9 -4 16 -5 16 -3 0 -17 67 -24 112 -5 29 1 46 13 39 4
-3 21 -8 38 -10z m3131 -97 c17 -6 32 -15 32 -21 0 -6 3 -8 7 -5 3 4 20 -12
36 -34 24 -32 31 -53 33 -96 3 -70 -7 -96 -54 -143 -44 -43 -81 -58 -140 -53
-84 6 -156 64 -168 137 -3 23 -8 49 -10 59 -1 9 2 17 7 17 6 0 8 4 4 9 -7 12
14 61 35 81 21 22 80 62 80 56 0 -3 10 -2 22 3 25 9 69 6 116 -10z m779 -54
c2 -14 -1 -25 -6 -25 -6 0 -8 6 -5 14 3 8 0 17 -5 21 -6 3 -9 11 -5 16 8 14
17 3 21 -26z m118 -10 c52 -24 95 -47 95 -50 0 -4 -8 -4 -19 0 -20 6 -89 17
-106 17 -5 0 -20 -4 -32 -7 -14 -5 -23 -3 -24 4 -3 26 -4 30 -11 37 -9 8 -11
44 -3 44 2 0 47 -20 100 -45z m-2933 -17 c8 -7 43 -53 78 -103 35 -49 68 -93
74 -97 6 -4 9 -8 6 -9 -3 0 -14 -2 -25 -4 -15 -3 -29 10 -55 48 -19 29 -40 58
-47 65 -6 6 -15 21 -18 32 -3 11 -10 20 -14 20 -3 0 -15 14 -24 30 -14 23 -15
30 -4 30 7 0 20 -6 29 -12z m187 -65 c17 -24 31 -46 31 -51 0 -4 9 -14 19 -22
11 -7 18 -17 15 -22 -3 -4 0 -8 5 -8 6 0 11 -7 11 -15 0 -8 5 -15 10 -15 6 0
10 -4 10 -10 0 -31 -69 15 -70 46 0 7 -7 14 -15 18 -8 3 -15 12 -15 21 0 8 -4
15 -8 15 -5 0 -15 12 -23 28 -8 15 -20 33 -26 40 -19 20 -16 32 6 24 11 -4 33
-26 50 -49z m136 17 c8 0 17 -10 20 -22 4 -13 16 -43 27 -67 11 -25 22 -54 24
-65 3 -21 3 -21 -11 -1 -22 29 -42 56 -70 91 -14 18 -25 37 -25 43 0 6 -5 11
-11 11 -5 0 -7 5 -4 11 4 6 14 8 22 5 8 -3 21 -6 28 -6z m2179 -32 c-9 -41
-11 -119 -3 -124 3 -2 6 -16 7 -32 0 -24 -3 -28 -26 -27 -15 0 -32 3 -37 7 -8
5 -13 138 -6 196 0 7 16 12 37 12 35 0 35 -1 28 -32z m-1230 -20 c-1 -18 -3
-36 -3 -40 -1 -5 -20 -8 -42 -8 -34 0 -39 2 -30 14 6 8 25 19 41 26 18 7 27
17 23 26 -3 8 -1 14 4 14 5 0 8 -15 7 -32z m122 -3 c-4 -24 -16 -30 -16 -7 0
12 4 22 9 22 5 0 8 -7 7 -15z m-125 -85 c6 -65 5 -70 -16 -71 -11 -1 -24 0
-30 1 -5 1 -32 3 -60 5 -27 1 -55 3 -61 4 -8 1 -11 16 -9 39 2 20 4 37 4 37 1
0 39 0 86 0 69 0 85 -3 86 -15z m180 1 c8 -1 5 -71 -3 -72 -5 -1 -19 -1 -33
-1 -14 0 -29 0 -34 1 -5 1 -11 17 -13 36 -3 30 -1 34 22 37 14 2 32 3 40 2 8
-2 18 -3 21 -3z"/>
<path d="M7120 5509 c0 -4 -9 -11 -21 -14 -31 -10 -58 -97 -37 -122 6 -7 7
-13 3 -13 -5 0 5 -11 21 -25 16 -14 32 -25 37 -25 11 0 9 18 -3 22 -17 5 -18
70 -1 99 23 40 94 54 124 24 8 -8 17 -11 21 -8 6 6 -48 62 -61 64 -37 5 -83 4
-83 -2z"/>
<path d="M4071 6234 c-41 -14 -87 -34 -102 -45 -15 -10 -30 -19 -34 -19 -7 0
-182 -118 -201 -135 -10 -10 -47 -38 -89 -69 -16 -11 -6 -11 47 4 55 15 67 16
72 4 3 -7 1 -16 -4 -19 -6 -4 -10 -15 -10 -26 0 -10 -4 -19 -10 -19 -5 0 -10
-7 -10 -16 0 -28 -131 -207 -240 -328 -167 -186 -392 -410 -684 -681 -59 -55
-127 -118 -151 -140 -23 -22 -82 -76 -130 -120 -48 -44 -102 -93 -120 -110
-18 -16 -51 -45 -73 -63 -22 -18 -58 -48 -79 -67 -21 -19 -41 -35 -44 -35 -3
0 -17 -10 -31 -22 -85 -77 -346 -258 -371 -258 -9 0 -9 45 1 54 4 4 7 11 7 14
1 7 35 63 45 72 3 3 12 19 20 35 8 17 17 32 20 35 3 3 17 21 30 40 13 19 27
37 31 40 3 3 11 15 18 27 10 20 9 21 -15 17 -58 -11 -118 -66 -257 -239 -48
-61 -96 -121 -107 -133 -11 -13 -20 -27 -20 -31 0 -4 -9 -16 -20 -26 -27 -25
-133 -180 -159 -234 -11 -25 -21 -60 -21 -78 0 -27 4 -33 23 -34 40 -2 88 6
113 19 10 5 44 22 74 38 30 15 71 36 90 47 19 11 47 26 61 34 15 7 32 20 39
28 7 8 18 15 25 15 6 0 20 9 30 20 10 11 24 20 32 20 7 0 13 5 13 10 0 6 6 10
14 10 8 0 16 3 18 8 2 4 48 41 103 82 103 77 136 103 166 131 9 9 23 21 32 25
8 5 40 32 72 59 32 28 67 58 79 68 11 9 33 28 49 42 15 14 33 25 39 25 6 0 9
3 5 6 -3 3 8 18 26 33 34 28 63 54 139 123 25 24 83 77 128 118 45 41 138 129
206 196 68 66 124 118 124 115 0 -3 4 0 9 8 17 26 351 357 356 353 3 -3 5 -1
5 5 0 5 36 48 81 94 72 74 251 264 349 368 19 20 60 66 90 100 30 35 60 69 65
75 6 6 22 27 35 46 13 19 27 37 31 40 21 16 108 170 112 199 2 11 6 23 10 27
3 4 2 14 -3 23 -13 25 -66 24 -149 -5z"/>
<path d="M3402 6203 c-10 -4 -9 -8 3 -17 14 -10 13 -12 -6 -24 -12 -8 -19 -10
-16 -5 3 4 -1 17 -9 28 -14 19 -14 19 -16 -1 0 -10 -1 -24 -1 -31 1 -10 -68
-28 -92 -25 -2 1 -24 -5 -47 -14 -64 -22 -152 -125 -158 -184 -2 -19 -1 -150
1 -215 1 -27 -1 -107 -3 -177 -3 -71 -2 -128 1 -128 8 0 243 231 311 305 192
211 230 252 278 301 29 30 57 52 62 49 6 -3 7 0 4 8 -2 7 -10 14 -17 14 -7 0
-25 4 -42 7 -30 7 -78 16 -102 20 -14 2 -28 14 -28 24 -3 33 -19 52 -46 53
-36 2 -42 3 -54 10 -5 4 -16 4 -23 2z"/>
<path d="M713 6062 l-71 -3 2 -29 c1 -16 5 -32 9 -36 8 -8 2211 -9 2224 -1 5
3 10 19 11 36 2 31 2 31 -45 31 -27 1 -192 0 -368 0 -176 -1 -324 -1 -330 -1
-190 0 -464 0 -475 0 -81 -1 -488 0 -532 1 -215 4 -363 5 -425 2z"/>
<path d="M1007 5831 c-2 -3 -1 -20 2 -36 l6 -31 935 1 936 0 0 36 0 37 -938
-1 c-516 0 -940 -2 -941 -6z"/>
<path d="M1500 5538 l0 -38 83 0 c698 -2 1291 1 1296 6 3 3 6 20 7 37 l1 32
-694 0 -693 0 0 -37z"/>
<path d="M8635 5229 c-4 -6 -5 -12 -2 -15 2 -3 7 2 10 11 7 17 1 20 -8 4z"/>
<path d="M2350 5030 c35 -33 67 -60 72 -60 5 0 6 -4 3 -10 -3 -5 -2 -10 2 -10
5 0 46 -35 92 -79 l84 -79 39 46 c22 24 46 51 54 59 8 8 14 17 14 21 0 9 -130
131 -151 143 -9 4 -56 11 -105 14 -49 3 -107 7 -129 10 l-39 4 64 -59z"/>
<path d="M1135 5062 c-2 -2 -94 -3 -204 -2 l-201 1 2 -373 3 -372 530 -1 c458
0 532 2 546 15 8 8 44 40 80 70 35 30 73 63 83 72 11 10 24 18 28 18 5 0 7 4
4 9 -3 4 -214 8 -468 8 l-463 0 0 49 0 49 337 1 c313 1 338 3 361 20 54 42
152 128 159 138 5 9 -100 12 -425 12 l-432 0 -1 34 c-1 19 1 40 3 45 2 7 124
11 361 10 l357 0 31 30 c17 17 50 46 73 65 23 19 57 50 77 67 l35 32 -317 3
c-174 2 -317 1 -319 -2 -2 -3 -56 -3 -120 0 -64 3 -118 4 -120 2z"/>
<path d="M6546 4965 c-17 -11 -35 -31 -41 -43 -5 -12 -13 -22 -18 -22 -4 0 -6
-4 -3 -8 3 -5 -2 -28 -10 -53 -9 -24 -18 -52 -20 -61 -7 -31 -13 -51 -39 -138
-15 -47 -28 -92 -30 -100 -2 -8 -4 -15 -5 -15 -1 0 -3 -7 -5 -15 -7 -29 -56
-195 -62 -210 -3 -8 -8 -26 -10 -40 l-4 -25 105 0 c58 0 109 5 115 10 5 6 12
21 15 35 3 14 17 66 31 115 29 101 34 120 41 152 2 12 9 35 15 50 6 16 10 29
9 31 -1 1 2 16 5 33 l7 31 25 -43 c14 -24 26 -50 26 -56 0 -7 4 -13 9 -13 4 0
8 -7 8 -15 0 -8 4 -15 9 -15 7 0 14 -13 25 -50 1 -3 6 -12 11 -20 5 -8 20 -35
33 -60 77 -146 87 -160 125 -179 46 -23 112 -20 156 7 17 10 29 21 26 24 -3 3
1 11 10 18 8 7 15 16 15 20 0 5 19 41 41 81 23 41 66 122 96 181 30 60 60 108
65 108 6 0 8 -7 4 -15 -3 -8 -2 -15 3 -15 4 0 8 -6 9 -12 2 -33 11 -75 20 -98
6 -14 27 -87 48 -162 20 -76 39 -138 43 -139 30 -5 214 -2 217 3 3 4 -5 40
-16 79 -12 40 -23 79 -25 88 -2 9 -10 36 -18 61 -16 47 -28 92 -34 125 -2 11
-8 24 -13 29 -6 6 -10 20 -10 32 0 12 -7 38 -15 58 -8 20 -15 37 -14 38 0 2
-2 10 -4 18 -3 8 -11 38 -17 65 -28 111 -81 161 -160 152 -60 -7 -91 -37 -160
-159 -36 -62 -70 -122 -77 -133 -6 -11 -20 -36 -29 -55 -10 -19 -24 -41 -31
-48 -7 -8 -11 -18 -8 -23 4 -5 2 -9 -3 -9 -5 0 -15 -15 -23 -32 -7 -18 -14
-35 -15 -37 -4 -4 -35 26 -35 34 1 12 -13 41 -27 58 -8 9 -11 17 -6 17 5 0 4
4 -2 8 -10 7 -174 289 -174 300 0 12 -54 62 -67 62 -7 0 -13 5 -13 10 0 19
-91 8 -124 -15z"/>
<path d="M3376 4946 c-69 -88 -116 -150 -116 -155 0 -4 75 -6 166 -6 97 0 168
-4 172 -10 11 -17 8 -425 -3 -425 -7 0 -7 -3 0 -8 6 -4 10 -25 9 -47 0 -22 3
-45 7 -50 8 -12 197 -14 215 -3 6 4 10 94 9 263 0 141 3 262 7 268 5 8 49 12
135 12 l127 0 22 32 c12 18 24 29 28 26 3 -4 6 -2 6 4 0 5 20 36 45 67 25 32
45 59 45 60 0 1 -191 2 -425 2 l-424 0 -25 -30z"/>
<path d="M4375 4945 c-34 -36 -110 -135 -116 -150 -3 -7 116 -11 341 -12 190
-1 352 -3 360 -5 59 -14 84 -78 48 -123 -10 -14 -27 -25 -37 -25 -10 0 -21 -3
-25 -7 -4 -5 -160 -8 -346 -8 -186 0 -342 -4 -346 -8 -9 -9 -9 -355 0 -364 12
-12 227 -9 222 3 -2 6 -1 17 4 24 4 7 4 26 0 41 -5 16 -5 29 -2 29 4 0 6 17 4
39 -2 24 1 42 9 46 7 5 87 8 178 8 l165 -1 33 -37 c18 -20 47 -55 65 -77 68
-84 61 -82 228 -82 83 -1 150 0 150 2 0 5 -160 170 -184 191 -51 44 -51 43
-11 62 20 10 43 23 51 30 8 6 14 8 14 3 0 -17 61 76 74 112 18 52 12 136 -12
183 -40 77 -103 118 -223 147 -13 4 -157 7 -319 9 l-294 3 -31 -33z"/>
<path d="M5395 4611 c0 -201 3 -368 6 -371 9 -6 717 -6 722 1 30 39 115 147
124 157 7 7 13 17 13 21 0 5 -141 8 -312 8 l-313 -1 -3 51 -3 51 227 -1 c247
0 236 -2 284 63 14 19 33 42 42 51 9 10 21 26 27 36 9 19 1 19 -276 19 -156
-1 -289 2 -295 5 -5 3 -8 24 -6 45 l3 39 240 0 240 -1 68 88 c37 48 69 91 70
95 1 4 -192 8 -428 9 l-430 0 0 -365z"/>
<path d="M7769 4973 c-1 -2 -3 -7 -4 -13 -1 -5 -3 -11 -5 -12 -6 -8 -4 -138 3
-138 4 0 3 -8 -2 -18 -6 -10 -6 -24 -1 -32 5 -8 6 -18 4 -22 -9 -14 -10 -88
-1 -88 4 0 3 -8 -2 -18 -6 -10 -6 -24 -1 -32 5 -8 6 -18 4 -22 -9 -14 -10 -88
-1 -88 4 0 3 -8 -2 -18 -6 -10 -6 -24 -1 -32 5 -8 6 -18 4 -22 -9 -14 -10 -88
-1 -88 4 0 3 -8 -2 -19 -6 -10 -8 -21 -4 -24 3 -4 6 -16 7 -29 l1 -22 354 0
c396 -1 358 -8 426 82 21 28 43 52 47 52 4 0 8 6 8 14 0 8 5 16 12 18 6 2 9 9
5 15 -5 7 -103 11 -304 11 -164 0 -303 0 -309 1 -7 1 -11 20 -10 49 l1 47 228
1 228 2 24 27 c14 14 25 28 25 30 0 5 35 48 63 78 10 10 16 22 12 25 -4 4
-133 8 -288 8 -155 1 -285 2 -289 3 -12 2 -6 71 6 79 6 3 115 7 241 7 225 0
230 0 253 23 12 12 19 22 16 22 -3 0 1 6 8 13 22 22 88 111 91 122 2 9 -841
17 -844 8z"/>
<path d="M3045 4839 c-4 -6 -5 -12 -2 -15 2 -3 7 2 10 11 7 17 1 20 -8 4z"/>
<path d="M2867 4562 l-58 -58 73 -76 c58 -61 78 -76 98 -73 14 2 57 6 95 9 89
8 126 13 131 19 5 5 -265 237 -275 237 -4 0 -33 -26 -64 -58z"/>
<path d="M3023 4000 c-12 -5 -26 -17 -30 -27 -5 -10 -8 -89 -8 -177 l1 -158
51 -2 50 -1 1 95 c0 52 1 100 1 107 1 6 25 -12 55 -40 30 -29 62 -59 73 -68
10 -8 40 -34 67 -58 40 -34 54 -41 75 -36 47 11 51 27 51 200 l0 162 -50 2
c-34 1 -50 -3 -51 -11 -1 -7 -1 -54 -1 -105 0 -87 -1 -91 -18 -80 -11 6 -24
21 -31 34 -6 12 -15 21 -19 20 -5 -1 -37 25 -71 58 -63 59 -108 96 -119 94 -3
0 -15 -4 -27 -9z"/>
<path d="M4170 4000 c-114 -21 -160 -69 -166 -169 -8 -135 63 -191 246 -195
117 -3 184 16 231 63 37 38 47 153 20 211 -15 32 -69 69 -118 82 -47 12 -166
16 -213 8z m196 -102 c32 -15 48 -51 41 -93 -10 -63 -36 -76 -152 -76 -78 0
-140 15 -130 32 3 4 1 10 -5 14 -14 9 -12 78 3 97 6 8 21 20 32 26 25 13 181
13 211 0z"/>
<path d="M4755 4000 c-74 -12 -135 -48 -161 -96 -14 -25 -15 -145 -2 -161 6
-7 7 -13 4 -13 -4 0 9 -16 29 -35 37 -35 97 -61 114 -51 5 4 12 2 15 -3 3 -5
46 -8 94 -7 166 4 243 58 248 174 4 96 -37 155 -127 183 -41 12 -158 17 -214
9z m190 -103 c29 -15 42 -36 43 -70 2 -78 -31 -99 -155 -98 -120 1 -143 16
-143 97 0 33 14 56 45 72 25 13 184 13 210 -1z"/>
<path d="M5398 4004 c-3 -3 -40 -5 -81 -5 l-75 0 -36 -42 c-20 -23 -36 -44
-36 -47 0 -3 66 -5 148 -5 180 1 200 -2 214 -28 9 -17 7 -24 -10 -37 -17 -14
-46 -16 -182 -16 -89 1 -164 -1 -168 -4 -4 -3 -7 -45 -7 -95 l0 -90 55 1 55 0
1 43 c1 24 6 46 12 50 6 3 45 5 87 5 66 -2 79 -5 92 -23 47 -67 54 -72 131
-74 39 -1 72 0 72 4 0 3 -25 30 -56 61 -57 57 -57 57 -31 63 31 8 68 63 69
102 1 41 -27 89 -64 108 -19 10 -62 19 -100 20 -37 2 -71 6 -76 9 -5 3 -12 3
-14 0z"/>
<path d="M6328 4004 c-4 -3 -30 -6 -60 -7 -56 -2 -65 -7 -164 -103 l-43 -40
-3 70 -3 71 -51 3 c-47 3 -52 1 -55 -20 -4 -18 -3 -319 0 -338 1 -3 25 -5 53
-4 l53 1 0 77 c0 42 2 76 4 76 2 0 11 -8 20 -18 9 -9 46 -43 82 -75 l66 -57
82 -3 c44 -1 80 1 79 4 -3 7 -51 47 -123 104 -21 16 -54 44 -74 62 -34 30 -35
32 -16 40 20 8 167 115 195 142 13 13 13 14 -1 9 -9 -4 -21 -2 -26 3 -5 5 -12
7 -15 3z"/>
<path d="M6669 3991 c-9 -9 -31 -38 -49 -66 -19 -27 -40 -56 -46 -63 -7 -7
-23 -30 -35 -52 -13 -22 -26 -40 -31 -40 -4 0 -8 -7 -8 -15 0 -8 -3 -15 -8
-15 -4 0 -18 -18 -32 -40 -14 -22 -29 -40 -33 -40 -5 0 -7 -5 -5 -11 2 -7 29
-12 62 -13 62 -1 55 -6 122 77 8 9 14 21 14 25 0 5 8 17 18 28 9 11 23 29 30
40 7 10 21 31 31 47 l18 27 30 -47 c16 -27 38 -61 48 -76 l18 -29 -54 2 c-95
3 -96 2 -129 -44 -16 -25 -30 -46 -30 -48 0 -2 343 -1 398 1 12 1 -129 217
-151 232 -5 3 -9 10 -9 15 -1 12 -53 87 -71 103 -24 19 -80 20 -98 2z"/>
<path d="M7788 4004 c-4 -4 -35 -7 -68 -6 -57 0 -61 -1 -88 -36 -16 -21 -31
-42 -35 -48 -4 -7 21 -10 77 -10 l82 1 0 -132 c-1 -113 1 -133 14 -134 87 -5
91 -5 95 16 2 11 3 69 2 128 -1 64 2 111 8 115 6 4 33 7 62 7 54 0 69 9 107
68 l18 27 -96 -2 c-52 -1 -98 1 -101 4 -4 3 -19 2 -35 -2 -18 -5 -30 -4 -32 1
-2 6 -7 7 -10 3z"/>
<path d="M8417 4004 c-3 -3 -54 -6 -114 -6 -67 0 -118 -5 -133 -13 -43 -22
-63 -52 -62 -91 4 -94 31 -108 211 -109 113 -1 136 -4 145 -18 6 -9 7 -20 2
-24 -4 -4 -76 -9 -159 -11 -98 -1 -153 -6 -156 -13 -2 -6 -16 -26 -32 -44 -16
-18 -29 -34 -29 -36 0 -6 360 -1 396 5 98 19 124 162 36 198 -15 6 -83 12
-152 14 -168 3 -160 2 -160 19 0 25 32 32 159 30 l123 -1 34 40 c19 22 34 43
34 48 0 4 -26 7 -58 6 -32 -1 -63 1 -68 5 -6 3 -14 4 -17 1z"/>
<path d="M2792 3833 c0 -93 2 -175 4 -183 3 -14 21 -16 99 -11 7 1 11 62 10
179 l0 177 -56 3 -56 2 -1 -167z"/>
<path d="M3543 3977 c-11 -12 -28 -33 -36 -47 l-16 -25 122 1 c127 0 178 -10
203 -44 16 -20 19 -82 4 -82 -5 0 -10 -6 -10 -13 0 -19 -64 -35 -142 -36 l-68
-1 1 61 c1 33 -1 63 -4 65 -3 3 -28 7 -56 9 -42 2 -51 0 -52 -14 -3 -96 0
-203 5 -208 7 -8 257 -6 294 1 41 9 97 47 122 83 20 29 25 49 25 97 0 73 -21
109 -86 145 -39 21 -59 25 -165 27 -114 3 -122 2 -141 -19z"/>
<path d="M7115 3976 c-19 -23 -45 -62 -45 -69 0 -2 69 -3 153 -2 173 2 207 -5
207 -41 0 -36 -26 -41 -198 -40 -85 1 -157 -1 -161 -4 -9 -6 -8 -161 1 -175 5
-8 63 -11 98 -6 3 1 5 22 5 48 l0 47 80 0 80 1 42 -45 c23 -25 42 -47 43 -50
0 -4 133 -4 148 -1 1 1 -6 11 -18 23 -11 12 -20 26 -20 32 0 5 -3 7 -6 3 -3
-3 -18 9 -34 26 l-28 31 28 18 c67 40 75 143 15 188 -37 28 -92 37 -231 39
-135 1 -140 0 -159 -23z"/>
</g>
</svg>
